<svg width="60" height="60" viewBox="0 0 60 60" fill="none" xmlns="http://www.w3.org/2000/svg">
<path d="M27.5002 58C12.3377 58 0 45.6628 0 30.5002C0 15.3377 12.3377 3 27.5002 3C32.7728 3 37.9025 4.50238 42.335 7.34739C43.2052 7.9077 43.4602 9.06767 42.8999 9.94017C42.3378 10.8127 41.1801 11.0649 40.3076 10.5051C36.4825 8.04732 32.0527 6.75001 27.5002 6.75001C14.4049 6.75001 3.75001 17.4049 3.75001 30.5002C3.75001 43.5951 14.4049 54.25 27.5002 54.25C40.5951 54.25 51.25 43.5951 51.25 30.5002C51.25 29.7174 51.2124 28.9425 51.1401 28.1803C51.0403 27.1476 51.7952 26.2325 52.8252 26.1327C53.8602 26.0375 54.7725 26.7878 54.8727 27.8177C54.9574 28.7003 55 29.5952 55 30.5002C55 45.6628 42.6628 58 27.5002 58Z" fill="#41A239"/>
<path d="M26.9694 40C26.4953 40 26.0207 39.8188 25.6602 39.4546L14.5428 28.2943C13.8191 27.5673 13.8191 26.3893 14.5428 25.6628C15.2666 24.9362 16.4401 24.9362 17.1639 25.6628L26.9721 35.5088L52.8357 9.54494C53.5599 8.81835 54.7334 8.81835 55.4572 9.54494C56.1809 10.2715 56.1809 11.4495 55.4572 12.1761L28.2812 39.4569C27.918 39.8188 27.4439 40 26.9694 40Z" fill="#41A239"/>
</svg>
