<svg width="24" height="24" viewBox="0 0 24 24" fill="none" xmlns="http://www.w3.org/2000/svg">
<path d="M7 9C6.44772 9 6 9.44772 6 10C6 10.5523 6.44772 11 7 11V9ZM13 11C13.5523 11 14 10.5523 14 10C14 9.44772 13.5523 9 13 9V11ZM11 7C11 6.44772 10.5523 6 10 6C9.44772 6 9 6.44772 9 7H11ZM9 13C9 13.5523 9.44772 14 10 14C10.5523 14 11 13.5523 11 13H9ZM15.7071 14.2929C15.3166 13.9024 14.6834 13.9024 14.2929 14.2929C13.9024 14.6834 13.9024 15.3166 14.2929 15.7071L15.7071 14.2929ZM20.2929 21.7071C20.6834 22.0976 21.3166 22.0976 21.7071 21.7071C22.0976 21.3166 22.0976 20.6834 21.7071 20.2929L20.2929 21.7071ZM7 11H13V9H7V11ZM9 7V13H11V7H9ZM10 16C6.68629 16 4 13.3137 4 10H2C2 14.4183 5.58172 18 10 18V16ZM4 10C4 6.68629 6.68629 4 10 4V2C5.58172 2 2 5.58172 2 10H4ZM10 4C13.3137 4 16 6.68629 16 10H18C18 5.58172 14.4183 2 10 2V4ZM16 10C16 13.3137 13.3137 16 10 16V18C14.4183 18 18 14.4183 18 10H16ZM14.2929 15.7071L20.2929 21.7071L21.7071 20.2929L15.7071 14.2929L14.2929 15.7071Z" fill="white"/>
</svg>
