<svg width="50" height="50" viewBox="0 0 20 20" fill="none" xmlns="http://www.w3.org/2000/svg">
<path d="M5 7C4.44772 7 4 7.44772 4 8C4 8.55228 4.44772 9 5 9V7ZM11 9C11.5523 9 12 8.55228 12 8C12 7.44772 11.5523 7 11 7V9ZM9 5C9 4.44772 8.55228 4 8 4C7.44772 4 7 4.44772 7 5H9ZM7 11C7 11.5523 7.44772 12 8 12C8.55228 12 9 11.5523 9 11H7ZM13.7071 12.2929C13.3166 11.9024 12.6834 11.9024 12.2929 12.2929C11.9024 12.6834 11.9024 13.3166 12.2929 13.7071L13.7071 12.2929ZM18.2929 19.7071C18.6834 20.0976 19.3166 20.0976 19.7071 19.7071C20.0976 19.3166 20.0976 18.6834 19.7071 18.2929L18.2929 19.7071ZM5 9H11V7H5V9ZM7 5V11H9V5H7ZM8 14C4.68629 14 2 11.3137 2 8H0C0 12.4183 3.58172 16 8 16V14ZM2 8C2 4.68629 4.68629 2 8 2V0C3.58172 0 0 3.58172 0 8H2ZM8 2C11.3137 2 14 4.68629 14 8H16C16 3.58172 12.4183 0 8 0V2ZM14 8C14 11.3137 11.3137 14 8 14V16C12.4183 16 16 12.4183 16 8H14ZM12.2929 13.7071L18.2929 19.7071L19.7071 18.2929L13.7071 12.2929L12.2929 13.7071Z" fill="rgba(252, 252, 252, 0.473)"/>
</svg>
