<?xml version="1.0" encoding="utf-8"?>
<!DOCTYPE svg PUBLIC "-//W3C//DTD SVG 20010904//EN" "http://www.w3.org/TR/2001/REC-SVG-20010904/DTD/svg10.dtd">
<svg version="1.0" xmlns="http://www.w3.org/2000/svg" width="512pt" height="512pt" viewBox="0 0 512 512" style="" preserveAspectRatio="xMidYMid meet">
<g fill="#000000FF" stroke="#000000FF">
<path d="M 71.500 1.402 C 56.744 6.081 41.114 21.990 23.756 50.000 C 14.317 65.230 6.777 83.742 2.871 101.275 C -0.086 114.549 -0.822 142.897 1.394 158.209 C 8.433 206.848 36.334 260.890 83.890 318.000 C 114.507 354.766 159.016 399.265 194.504 428.586 C 242.777 468.470 287.609 494.000 329.574 505.501 C 349.183 510.875 361.496 512.343 381.500 511.691 C 408.017 510.827 427.130 505.981 451.500 493.943 C 469.175 485.213 481.466 476.454 495.623 462.500 C 510.206 448.127 511.500 445.640 511.500 432.000 C 511.500 421.886 511.361 421.216 507.728 413.782 C 505.653 409.538 501.170 402.338 497.765 397.782 C 488.587 385.503 456.434 353.799 445.000 345.754 C 417.010 326.060 407.125 327.049 376.500 352.606 C 345.730 378.284 316.019 376.685 276.761 347.237 C 262.829 336.786 254.907 329.810 234.500 310.020 C 166.245 243.831 143.546 212.877 141.354 183.000 C 140.000 164.528 147.330 148.101 166.606 126.409 C 171.315 121.110 176.031 114.762 177.085 112.301 C 182.917 98.696 179.138 84.039 164.856 64.879 C 157.231 54.648 124.122 21.335 114.500 14.211 C 97.557 1.668 83.690 -2.463 71.500 1.402 M 61.136 58.703 C 74.906 66.894 86.062 76.024 101.297 91.567 C 118.792 109.417 123.442 115.359 129.646 127.792 L 134.283 137.085 131.669 143.792 C 126.426 157.245 125.494 162.494 125.593 178.000 C 125.675 190.695 126.022 193.620 128.385 201.500 C 135.467 225.123 150.090 247.501 178.167 277.684 C 194.141 294.857 241.043 340.262 253.527 350.640 C 275.632 369.015 294.706 379.972 312.669 384.615 C 321.447 386.884 323.892 387.105 335.500 386.682 C 349.282 386.180 355.076 384.881 365.329 379.999 C 370.784 377.400 371.457 377.302 375.829 378.462 C 382.337 380.189 391.607 385.046 398.052 390.106 C 406.577 396.800 427.140 417.237 439.528 431.330 C 455.070 449.010 459.110 457.112 457.555 467.479 C 456.906 471.812 456.656 472.075 449.162 476.289 C 410.131 498.238 369.048 501.393 322.946 485.982 C 274.565 469.809 224.311 435.817 163.000 377.796 C 103.968 321.931 56.958 261.192 35.374 212.898 C 13.491 163.935 10.655 121.713 26.567 81.799 C 30.681 71.480 38.344 57.182 40.796 55.250 C 41.668 54.563 44.823 54.000 47.805 54.000 C 52.480 54.000 54.320 54.649 61.136 58.703 M 91.235 19.359 C 100.208 23.804 109.841 31.784 127.589 49.470 C 152.682 74.477 162.997 88.630 162.999 98.054 C 163.000 102.888 159.023 110.312 152.642 117.389 L 147.332 123.278 140.837 113.389 C 131.221 98.748 123.990 90.274 105.846 72.383 C 85.591 52.412 73.021 43.880 55.727 38.369 L 52.954 37.485 61.194 28.596 C 73.460 15.364 79.453 13.522 91.235 19.359 M 423.500 351.846 C 432.490 356.108 443.615 365.386 462.522 384.391 C 480.129 402.087 488.215 411.833 492.552 420.583 C 498.452 432.487 496.835 438.232 484.278 449.980 C 479.563 454.391 475.394 458.000 475.012 458.000 C 474.630 458.000 473.042 454.830 471.482 450.955 C 464.148 432.738 452.867 417.706 431.373 397.515 C 414.222 381.403 405.548 374.416 395.143 368.329 L 388.786 364.611 394.643 359.330 C 401.690 352.975 409.119 349.000 413.946 349.001 C 415.901 349.001 420.200 350.282 423.500 351.846 "/></g>
<g fill="#000000FF" stroke="#000000FF">
<path d="M 263.861 1.909 C 261.577 3.756 261.490 4.363 261.183 20.409 L 260.865 37.000 256.643 37.000 C 250.879 37.000 241.643 39.525 235.826 42.691 C 229.391 46.193 220.483 55.695 217.517 62.219 C 213.268 71.566 212.862 77.516 213.202 125.500 C 213.513 169.548 213.568 170.619 215.783 176.119 C 220.712 188.358 229.693 197.286 242.023 202.204 C 246.936 204.164 249.775 204.430 269.613 204.789 L 291.726 205.189 292.292 211.948 C 293.993 232.232 306.195 253.194 325.148 268.394 C 334.891 276.207 355.571 286.882 367.000 289.998 C 384.634 294.805 402.936 296.170 419.500 293.912 L 427.500 292.822 446.994 303.513 C 457.716 309.394 467.874 314.430 469.569 314.705 C 471.850 315.075 473.359 314.594 475.379 312.852 C 478.029 310.568 478.177 309.865 480.540 288.471 L 482.972 266.442 488.780 260.470 C 505.549 243.226 512.814 224.383 511.708 201.000 C 511.075 187.606 508.726 178.388 503.093 167.185 C 492.747 146.611 472.652 128.617 451.797 121.252 L 444.005 118.500 444.003 97.799 C 444.001 86.280 443.501 74.748 442.875 71.799 C 439.255 54.751 425.413 41.302 408.109 38.021 C 405.016 37.434 385.868 37.000 363.087 37.000 L 323.448 37.000 298.474 18.520 C 276.926 2.575 273.001 0.037 269.861 0.020 C 267.745 0.008 265.234 0.799 263.861 1.909 M 298.231 39.250 L 317.500 53.500 362.500 54.000 C 412.694 54.558 411.377 54.377 418.696 61.696 C 426.744 69.744 426.465 67.733 426.779 119.970 L 427.058 166.439 423.918 172.819 C 420.664 179.427 415.432 184.186 408.684 186.674 C 406.357 187.532 384.897 187.868 328.928 187.924 C 241.983 188.010 246.288 188.383 237.952 180.048 C 229.991 172.086 230.000 172.154 230.000 121.000 C 230.000 69.846 229.991 69.914 237.952 61.952 C 243.984 55.920 249.632 54.004 261.428 53.986 C 266.418 53.979 271.531 53.697 272.790 53.359 C 276.758 52.296 278.000 48.171 278.000 36.050 C 278.000 29.972 278.217 25.000 278.481 25.000 C 278.746 25.000 287.634 31.413 298.231 39.250 M 453.216 140.103 C 464.048 145.611 474.479 154.428 482.097 164.514 C 494.443 180.860 498.632 203.899 492.643 222.500 C 489.433 232.467 481.913 244.099 474.107 251.171 C 467.089 257.530 466.460 259.336 464.950 277.481 C 464.355 284.642 463.671 291.103 463.430 291.840 C 463.110 292.824 461.201 292.183 456.247 289.427 C 452.536 287.362 445.293 283.439 440.150 280.707 C 429.803 275.211 432.393 275.465 412.000 277.955 C 395.698 279.946 373.212 275.945 356.379 268.056 C 328.946 255.201 311.830 234.364 308.525 209.801 L 307.893 205.102 358.696 204.798 C 408.846 204.498 409.572 204.464 415.119 202.224 C 427.386 197.269 436.340 188.251 441.179 175.977 C 443.009 171.334 443.405 167.882 443.781 153.317 L 444.224 136.135 446.578 137.030 C 447.873 137.522 450.860 138.905 453.216 140.103 "/></g>
</svg>
