<svg width="24" height="24" viewBox="0 0 24 24" fill="none" xmlns="http://www.w3.org/2000/svg">
<path d="M21.2502 18.47L19.6002 18.86C19.2302 18.95 18.9402 19.23 18.8602 19.6L18.5102 21.07C18.3202 21.87 17.3002 22.12 16.7702 21.49L13.7802 18.05C13.5402 17.77 13.6702 17.33 14.0302 17.24C15.8002 16.81 17.3902 15.82 18.5602 14.41C18.7502 14.18 19.0902 14.15 19.3002 14.36L21.5202 16.58C22.2802 17.34 22.0102 18.29 21.2502 18.47Z" fill="white"/>
<path d="M2.70016 18.47L4.35016 18.86C4.72016 18.95 5.01016 19.23 5.09016 19.6L5.44016 21.07C5.63016 21.87 6.65016 22.12 7.18016 21.49L10.1702 18.05C10.4102 17.77 10.2802 17.33 9.92016 17.24C8.15016 16.81 6.56016 15.82 5.39016 14.41C5.20016 14.18 4.86016 14.15 4.65016 14.36L2.43016 16.58C1.67016 17.34 1.94016 18.29 2.70016 18.47Z" fill="white"/>
<path d="M12 2C8.13 2 5 5.13 5 9C5 10.45 5.43 11.78 6.17 12.89C7.25 14.49 8.96 15.62 10.95 15.91C11.29 15.97 11.64 16 12 16C12.36 16 12.71 15.97 13.05 15.91C15.04 15.62 16.75 14.49 17.83 12.89C18.57 11.78 19 10.45 19 9C19 5.13 15.87 2 12 2ZM15.06 8.78L14.23 9.61C14.09 9.75 14.01 10.02 14.06 10.22L14.3 11.25C14.49 12.06 14.06 12.38 13.34 11.95L12.34 11.36C12.16 11.25 11.86 11.25 11.68 11.36L10.68 11.95C9.96 12.37 9.53 12.06 9.72 11.25L9.96 10.22C10 10.03 9.93 9.75 9.79 9.61L8.94 8.78C8.45 8.29 8.61 7.8 9.29 7.69L10.36 7.51C10.54 7.48 10.75 7.32 10.83 7.16L11.42 5.98C11.74 5.34 12.26 5.34 12.58 5.98L13.17 7.16C13.25 7.32 13.46 7.48 13.65 7.51L14.72 7.69C15.39 7.8 15.55 8.29 15.06 8.78Z" fill="white"/>
</svg>
