<svg width="26" height="26" viewBox="0 0 26 26" fill="none" xmlns="http://www.w3.org/2000/svg">
<path fill-rule="evenodd" clip-rule="evenodd" d="M13.0724 0.857376C19.8901 0.857376 25.4169 6.38422 25.4169 13.2019C25.4169 20.0196 19.8901 25.5465 13.0724 25.5465C6.25469 25.5465 0.727844 20.0196 0.727844 13.2019C0.727844 6.38422 6.25469 0.857376 13.0724 0.857376ZM13.0724 3.32629C7.61823 3.32629 3.19676 7.74777 3.19676 13.2019C3.19676 18.6561 7.61823 23.0776 13.0724 23.0776C18.5266 23.0776 22.948 18.6561 22.948 13.2019C22.948 7.74777 18.5266 3.32629 13.0724 3.32629ZM11.2255 7.19781L18.6322 12.1356C19.4008 12.584 19.446 13.6555 18.7679 14.1771L11.2255 19.206C10.4025 19.6861 9.36903 19.0925 9.36903 18.1397L9.36903 8.26411C9.36903 7.31137 10.4025 6.71775 11.2255 7.19781Z" fill="white"/>
</svg>
