<?xml version="1.0" encoding="utf-8"?>
<!DOCTYPE svg PUBLIC "-//W3C//DTD SVG 20010904//EN" "http://www.w3.org/TR/2001/REC-SVG-20010904/DTD/svg10.dtd">
<svg version="1.0" xmlns="http://www.w3.org/2000/svg" width="184pt" height="148pt" viewBox="0 0 184 148" style="" preserveAspectRatio="xMidYMid meet">
<g fill="#000000FF" stroke="#000000FF">
<path d="M 72.235 7.422 L 68.500 10.843 68.000 41.096 L 67.500 71.349 65.091 66.199 C 61.725 59.006 59.074 56.810 53.057 56.232 C 48.378 55.782 47.819 55.981 44.525 59.275 C 38.691 65.109 39.071 66.649 54.356 99.123 C 69.893 132.133 72.370 135.602 84.777 141.734 C 92.084 145.346 92.808 145.499 102.448 145.465 C 110.429 145.437 113.633 144.975 118.000 143.222 C 125.523 140.202 132.602 134.565 137.088 128.023 C 143.425 118.780 144.227 115.025 144.761 92.114 C 145.273 70.090 144.701 65.947 140.615 62.108 C 137.890 59.548 131.154 58.255 128.444 59.771 C 127.001 60.579 126.006 60.089 123.327 57.248 C 120.080 53.805 119.861 53.735 113.986 54.268 C 108.688 54.748 107.843 54.576 106.905 52.822 C 105.381 49.974 99.367 47.709 95.338 48.464 L 92.000 49.091 92.000 31.513 C 92.000 11.820 91.175 8.176 86.128 5.566 C 81.023 2.926 76.481 3.533 72.235 7.422 M 84.128 11.651 C 85.176 12.913 85.618 19.106 86.000 37.901 L 86.500 62.500 88.936 62.500 C 90.852 62.500 91.555 61.797 92.225 59.210 C 93.686 53.574 100.224 52.812 102.977 57.957 C 103.540 59.008 104.000 61.661 104.000 63.851 C 104.000 66.131 104.534 68.025 105.250 68.282 C 107.130 68.956 110.000 67.150 110.000 65.294 C 110.000 61.112 116.851 58.251 119.800 61.200 C 120.460 61.860 121.000 64.505 121.000 67.078 C 121.000 72.446 123.044 75.092 125.834 73.335 C 126.750 72.758 127.659 71.434 127.853 70.393 C 128.791 65.366 134.219 63.374 137.400 66.889 C 138.925 68.574 139.077 71.152 138.805 90.666 L 138.500 112.553 135.250 119.149 C 131.397 126.970 125.116 133.117 117.175 136.840 C 112.348 139.103 110.156 139.500 102.500 139.500 C 94.653 139.500 92.765 139.139 87.761 136.682 C 77.065 131.430 74.857 128.263 60.141 97.074 C 46.197 67.520 45.568 65.372 50.138 62.926 C 54.346 60.674 56.568 63.078 63.161 77.021 C 68.415 88.132 69.655 90.050 71.422 89.797 C 73.475 89.504 73.506 89.036 74.000 51.169 C 74.476 14.690 74.594 12.769 76.441 11.419 C 79.037 9.522 82.443 9.625 84.128 11.651 "/></g>
<g fill="#000000FF" stroke="#000000FF">
<path d="M 36.719 13.779 C 33.573 16.957 31.000 20.234 31.000 21.060 C 31.000 21.887 33.707 25.242 37.016 28.516 C 41.945 33.393 43.335 34.278 44.707 33.413 C 47.332 31.757 47.281 30.487 44.452 27.126 L 41.822 24.000 51.289 24.000 C 61.137 24.000 63.940 22.892 62.643 19.513 C 62.178 18.302 60.063 18.000 52.031 18.000 C 46.514 18.000 42.000 17.687 42.000 17.305 C 42.000 16.922 43.139 15.421 44.531 13.968 C 47.257 11.123 47.037 8.000 44.112 8.000 C 43.191 8.000 39.864 10.601 36.719 13.779 "/></g>
<g fill="#000000FF" stroke="#000000FF">
<path d="M 114.667 8.667 C 113.386 9.948 114.016 12.704 116.000 14.500 C 117.100 15.495 118.000 16.674 118.000 17.119 C 118.000 17.564 113.613 18.056 108.250 18.214 C 98.593 18.497 98.500 18.524 98.500 21.000 C 98.500 23.476 98.593 23.503 108.250 23.786 C 113.613 23.944 118.000 24.436 118.000 24.881 C 118.000 25.326 117.100 26.505 116.000 27.500 C 113.604 29.668 113.389 32.828 115.579 33.669 C 116.631 34.072 118.995 32.474 122.653 28.887 C 131.014 20.689 130.991 20.890 124.396 13.976 C 119.144 8.470 116.374 6.959 114.667 8.667 "/></g>
</svg>
