<svg width="24" height="24" viewBox="0 0 24 24" fill="none" xmlns="http://www.w3.org/2000/svg">
<path d="M5.5 10.75C3.16 10.75 1.25 8.84 1.25 6.5C1.25 4.16 3.16 2.25 5.5 2.25C7.84 2.25 9.75 4.16 9.75 6.5C9.75 8.84 7.84 10.75 5.5 10.75ZM5.5 3.75C3.98 3.75 2.75 4.98 2.75 6.5C2.75 8.02 3.98 9.25 5.5 9.25C7.02 9.25 8.25 8.02 8.25 6.5C8.25 4.98 7.02 3.75 5.5 3.75Z" fill="rgb(21, 124, 14)"/>
<path d="M5.5 21.75C3.16 21.75 1.25 19.84 1.25 17.5C1.25 15.16 3.16 13.25 5.5 13.25C7.84 13.25 9.75 15.16 9.75 17.5C9.75 19.84 7.84 21.75 5.5 21.75ZM5.5 14.75C3.98 14.75 2.75 15.98 2.75 17.5C2.75 19.02 3.98 20.25 5.5 20.25C7.02 20.25 8.25 19.02 8.25 17.5C8.25 15.98 7.02 14.75 5.5 14.75Z" fill="rgb(21, 124, 14)"/>
<path d="M8.65017 16.73C8.42017 16.73 8.20017 16.63 8.05017 16.43C7.80017 16.1 7.87019 15.63 8.20019 15.38L21.5502 5.40003C21.8802 5.15003 22.3502 5.22003 22.6002 5.55003C22.8502 5.88003 22.7802 6.35003 22.4502 6.60003L9.10018 16.58C8.97018 16.68 8.81017 16.73 8.65017 16.73Z" fill="rgb(21, 124, 14)"/>
<path d="M22.0002 18.72C21.8402 18.72 21.6902 18.67 21.5502 18.57L8.20019 8.59002C7.87019 8.34002 7.80017 7.87002 8.05017 7.54002C8.30017 7.21002 8.77018 7.14002 9.10018 7.39002L22.4502 17.37C22.7802 17.62 22.8502 18.09 22.6002 18.42C22.4502 18.61 22.2302 18.72 22.0002 18.72Z" fill="rgb(21, 124, 14)"/>
</svg>
